<svg width="132" height="132" viewBox="0 0 132 132" fill="none" xmlns="http://www.w3.org/2000/svg">
<circle cx="66" cy="66" r="66" fill="#F0F5FF"/>
<circle cx="66" cy="66" r="50" fill="#E0EBFF"/>
<path d="M66 57.875C65.75 57.875 65.525 57.825 65.275 57.725C64.575 57.45 64.125 56.75 64.125 56V41C64.125 39.975 64.975 39.125 66 39.125C67.025 39.125 67.875 39.975 67.875 41V51.475L69.675 49.675C70.4 48.95 71.6 48.95 72.325 49.675C73.05 50.4 73.05 51.6 72.325 52.325L67.325 57.325C66.975 57.675 66.475 57.875 66 57.875Z" fill="#3366FF"/>
<path d="M66 57.8751C65.525 57.8751 65.05 57.7001 64.675 57.3251L59.675 52.3251C58.95 51.6001 58.95 50.4001 59.675 49.6751C60.4 48.9501 61.6 48.9501 62.325 49.6751L67.325 54.6751C68.05 55.4001 68.05 56.6001 67.325 57.3251C66.95 57.7001 66.475 57.8751 66 57.8751Z" fill="#3366FF"/>
<path d="M76 92.875H56C41.625 92.875 41.625 85.25 41.625 78.5V76C41.625 70.425 41.625 64.125 53.5 64.125C56.475 64.125 57.575 64.85 59.125 66C59.2 66.075 59.3 66.125 59.375 66.225L61.925 68.925C64.075 71.2 67.975 71.2 70.125 68.925L72.675 66.225C72.75 66.15 72.825 66.075 72.925 66C74.475 64.825 75.575 64.125 78.55 64.125C90.425 64.125 90.425 70.425 90.425 76V78.5C90.375 88.05 85.55 92.875 76 92.875ZM53.5 67.875C45.375 67.875 45.375 70.425 45.375 76V78.5C45.375 85.35 45.375 89.125 56 89.125H76C83.45 89.125 86.625 85.95 86.625 78.5V76C86.625 70.425 86.625 67.875 78.5 67.875C76.7 67.875 76.325 68.1 75.25 68.9L72.825 71.475C71.025 73.375 68.6 74.425 66 74.425C63.4 74.425 60.975 73.375 59.175 71.475L56.75 68.9C55.675 68.1 55.3 67.875 53.5 67.875Z" fill="#3366FF"/>
<path d="M48.5 67.8749C47.475 67.8749 46.625 67.0249 46.625 65.9999V55.9999C46.625 51.1499 46.625 45.1249 55.825 44.2499C56.85 44.1499 57.775 44.8999 57.875 45.9499C57.975 46.9749 57.225 47.8999 56.175 47.9999C50.375 48.5249 50.375 50.8749 50.375 55.9999V65.9999C50.375 67.0249 49.525 67.8749 48.5 67.8749Z" fill="#091A7A"/>
<path d="M83.5001 67.8751C82.4751 67.8751 81.6251 67.0251 81.6251 66.0001V56.0001C81.6251 50.8751 81.6251 48.5251 75.8251 47.9751C74.8001 47.8751 74.0501 46.9501 74.1501 45.9251C74.2501 44.9001 75.1501 44.1251 76.2001 44.2501C85.4001 45.1251 85.4001 51.1501 85.4001 56.0001V66.0001C85.3751 67.0251 84.5251 67.8751 83.5001 67.8751Z" fill="#091A7A"/>
</svg>
