<svg width="15" height="32" viewBox="0 0 15 32" fill="none" xmlns="http://www.w3.org/2000/svg">
<path d="M5.49979 17.0002C4.11919 17.0002 3 18.1194 3 19.5C3 20.8806 4.1193 21.9998 5.49989 21.9998C6.8806 21.9998 8 20.8805 8 19.4998V17.0002H5.49979ZM12.5 17.0002C11.1193 17.0002 10 18.1195 10 19.5002V26.4998C10 27.8805 11.1193 28.9998 12.5 28.9998C13.8807 28.9998 15 27.8805 15 26.4998V19.5002C15 18.1195 13.8807 17.0002 12.5 17.0002Z" fill="#E01E5A"/>
<path d="M14.9998 5.49979C14.9998 4.11919 13.8806 3 12.5 3C11.1194 3 10.0002 4.1193 10.0002 5.49989C10.0002 6.88061 11.1195 8 12.5002 8L14.9998 8L14.9998 5.49979ZM14.9998 12.5C14.9998 11.1193 13.8805 10 12.4998 10L5.50024 10C4.11953 10 3.00024 11.1193 3.00024 12.5C3.00024 13.8807 4.11953 15 5.50024 15L12.4998 15C13.8805 15 14.9998 13.8807 14.9998 12.5Z" fill="#36C5F0"/>
</svg>
