<svg width="48" height="48" viewBox="0 0 48 48" fill="none" xmlns="http://www.w3.org/2000/svg">
<path d="M24 23.53C21.24 23.53 19 25.77 19 28.53C19 29.27 19.16 29.97 19.46 30.59C19.54 30.77 19.63 30.94 19.73 31.1C20.59 32.55 22.18 33.53 24 33.53C25.82 33.53 27.41 32.55 28.27 31.1C28.37 30.94 28.46 30.77 28.54 30.59C28.84 29.97 29 29.27 29 28.53C29 25.77 26.76 23.53 24 23.53ZM26.07 28.1L23.94 30.07C23.8 30.2 23.61 30.27 23.43 30.27C23.24 30.27 23.05 30.2 22.9 30.05L21.91 29.06C21.62 28.77 21.62 28.29 21.91 28C22.2 27.71 22.68 27.71 22.97 28L23.45 28.48L25.05 27C25.36 26.72 25.83 26.74 26.11 27.04C26.39 27.34 26.37 27.81 26.07 28.1Z" fill="#292D32"/>
<path d="M32.2 29.07C31.84 29.39 31.45 29.66 31.03 29.88C30.67 30.06 30.31 29.71 30.37 29.31C30.41 29.02 30.43 28.72 30.43 28.41C30.43 24.83 27.51 21.91 23.93 21.91C20.35 21.91 17.43 24.83 17.43 28.41C17.43 28.87 17.48 29.31 17.57 29.74C17.64 30.09 17.37 30.44 17.02 30.35C13.07 29.39 13.05 23.31 17.47 23H17.52C14.31 14.07 27.85 10.5 29.4 19.88C33.73 20.43 35.48 26.2 32.2 29.07Z" fill="#292D32"/>
<rect x="0.5" y="0.5" width="47" height="47" rx="23.5" stroke="#D1D5DB"/>
</svg>
